# xmcd
#
# Track frame offsets:
#	150
#	13164
#	29295
#	47344
#	62870
#	78422
#	94152
#	108219
#	122864
#	137481
#	148670
#	164239
#	180330
#	196288
#	214227
#	227804
#	242953
#	256758
#	267272
#	281605
#
# Disc length: 4059 seconds
# Revision: 2
# Processed by: cddbd v1.5.2PL0 Copyright (c) Steve Scherf et al.
# Submitted via: dBpowerAMP V12.0
#
DISCID=210fd914
DTITLE=Various Artist - Hit Country 2018
DYEAR=2018
DGENRE=Country Sampler
TTITLE0=Lee Kernaghan - Drive On
TTITLE1=Drew McAlister - Australian Heartbeat
TTITLE2=Luke Combs - When It Rains It Pours
TTITLE3=Brothers Osborne - Shoot Me Straight
TTITLE4=Christie Lamb - Loaded
TTITLE5=Dean Brody - Beautiful Freakshow
TTITLE6=Dustin Lynch - I'd Be Jealous Too
TTITLE7=Missy Lancaster - Heatwave
TTITLE8=Melanie Dyer - Dreamcatchers
TTITLE9=Dylan Scott - Hooked
TTITLE10=Jody Direen - Spitfire
TTITLE11=Darius Rucker - If I Told You
TTITLE12=Jasmine Rae - Fly Away
TTITLE13=Scotty McCreery - Five More Minutes
TTITLE14=Bobby Wills - Out Of Your Mind
TTITLE15=Brad Butcher - Crawl Beg and Cry
TTITLE16=Imogen Clark - Your Anything At All
TTITLE17=Catherine Britt and The Cold Cold Hearts - Red Dirt
TTITLE18=Tori Forsyth - In The Morning
TTITLE19=Lachlan Bryan And The Wildes - Careless Hearts
EXTD=
EXTT0=
EXTT1=
EXTT2=
EXTT3=
EXTT4=
EXTT5=
EXTT6=
EXTT7=
EXTT8=
EXTT9=
EXTT10=
EXTT11=
EXTT12=
EXTT13=
EXTT14=
EXTT15=
EXTT16=
EXTT17=
EXTT18=
EXTT19=
PLAYORDER=
